<svg id="Layer_1" data-name="Layer 1" xmlns="http://www.w3.org/2000/svg" viewBox="0 0 120.29 122.88"><defs><style>.cls-1{fill:#2f4773;}.cls-1,.cls-2,.cls-3{fill-rule:evenodd;}.cls-2{fill:#f5b13b;}</style></defs><title>mechanical-arm-assembly</title><path d="M85.2,7.14l4,12.27A2,2,0,0,1,87.84,22L45.33,36.22,72.22,48.94a2.09,2.09,0,0,1,.74.6l13.63,16.9a2,2,0,0,1,.43,1l4,37a2,2,0,0,1-1.8,2.22,1.16,1.16,0,0,1-.32,0l-52.71.15a2,2,0,0,1-2-2,1.92,1.92,0,0,1,.16-.79L49.74,67.87,7.31,45.27A2,2,0,0,1,6.3,43l4.9-20.19a2,2,0,0,1,1.6-1.51L82.85,5.78A2,2,0,0,1,85.2,7.14Z"/><polygon class="cls-1" points="83.28 7.75 87.22 20.03 39.93 35.91 71.35 50.77 85.01 67.7 88.99 104.67 36.17 104.82 52.32 66.96 8.26 43.49 13.16 23.3 83.28 7.75 83.28 7.75"/><path d="M68.86,48.64a18.17,18.17,0,0,1,12.85,31h0A18.17,18.17,0,1,1,56,54h0a18.14,18.14,0,0,1,12.85-5.32Z"/><path class="cls-2" d="M68.85,50.67A16.15,16.15,0,1,1,52.71,66.81,16.15,16.15,0,0,1,68.85,50.67Z"/><path class="cls-3" d="M68.85,59A7.87,7.87,0,1,1,61,66.81,7.86,7.86,0,0,1,68.85,59Z"/><path d="M12.54,21.27A12.53,12.53,0,0,1,21.4,42.66h0A12.53,12.53,0,1,1,3.67,25h0a12.48,12.48,0,0,1,8.86-3.67Z"/><path class="cls-2" d="M12.54,23.3A10.51,10.51,0,1,1,2,33.81,10.51,10.51,0,0,1,12.54,23.3Z"/><path class="cls-3" d="M12.54,30.2a3.61,3.61,0,1,1-3.61,3.61,3.6,3.6,0,0,1,3.61-3.61Z"/><path class="cls-3" d="M98.45,13.14,92.82,4.07a.88.88,0,0,1-.1-.22.6.6,0,0,1,.46-.7L107.77,0a.62.62,0,0,1,.49.12l11.8,9.69a.59.59,0,0,1,.15.75l-1.66,3a.59.59,0,0,1-.76.25L105.55,8.08l-6.3,5.25a.57.57,0,0,1-.8-.19Z"/><path d="M96.55,16.75a.6.6,0,0,1,.61.56l.39,8.55,12.32,5.93a.59.59,0,0,1,.18.81l-1.72,2.7a.58.58,0,0,1-.62.3L93,33a.58.58,0,0,1-.43-.33L86.41,19.5a.75.75,0,0,1,0-.16c-.2-1,8.9-2.32,10.19-2.59Z"/><path d="M90.6,1.48a10.13,10.13,0,0,1,7.19,3l.12.12a10.17,10.17,0,1,1-14.5-.12h0a10.13,10.13,0,0,1,7.19-3Z"/><path class="cls-2" d="M90.6,3.5a8.15,8.15,0,1,1-8.15,8.15A8.15,8.15,0,0,1,90.6,3.5Z"/><path class="cls-3" d="M90.6,8.85a2.8,2.8,0,1,1-2.8,2.8,2.8,2.8,0,0,1,2.8-2.8Z"/><path d="M33.62,103.27H91.26a12.12,12.12,0,0,1,8.58,3.57h0a12.09,12.09,0,0,1,3.57,8.58v5.43a2,2,0,0,1-2,2H23.5a2,2,0,0,1-2-2v-5.43a12.19,12.19,0,0,1,12.15-12.15Z"/><path class="cls-1" d="M33.62,105.29H91.26a10.16,10.16,0,0,1,10.13,10.13v5.43H23.5v-5.43a10.15,10.15,0,0,1,10.12-10.13Z"/><polygon class="cls-2" points="101.39 116.46 101.39 120.85 23.5 120.85 23.5 116.46 101.39 116.46 101.39 116.46"/></svg>