<?xml version="1.0" encoding="utf-8"?><svg version="1.1" id="Layer_1" xmlns="http://www.w3.org/2000/svg" xmlns:xlink="http://www.w3.org/1999/xlink" x="0px" y="0px" viewBox="0 0 107.42 122.88" style="enable-background:new 0 0 107.42 122.88" xml:space="preserve"><style type="text/css"><![CDATA[
	.st0{fill-rule:evenodd;clip-rule:evenodd;fill:#E5273A;}
	.st1{fill-rule:evenodd;clip-rule:evenodd;}
	.st2{fill-rule:evenodd;clip-rule:evenodd;fill:#20A8CE;}
	.st3{fill-rule:evenodd;clip-rule:evenodd;fill:#F43E14;}
	.st4{fill-rule:evenodd;clip-rule:evenodd;fill:#663333;}
]]></style><g><path class="st0" d="M41.77,91.22l2.71,1.32c14.16,5.73,30.02-5.06,32.06-18.38c-16.51-3.92-32.34-4.23-47.39-0.36 c1.98,6.44,4.98,11.65,9.36,15.19C39.58,89.85,40.67,90.59,41.77,91.22L41.77,91.22z M44.48,103.58v8.94h0.02v2.14 c0,2.26-0.21,4.34-1.77,6.21c-2.27,2.72-7.11,1.89-10.44,1.89H19.62c1.87-5.46,4.81-9.47,10.58-9.68V97.12 c-6.1-4.34-10.96-10.33-13.95-17.33c-1.29,1.37-2.07,3.9-2.59,8.89c24.24,16.38-24.66,31.55-11.29-6.07 c2.83-7.96,6.3-14.25,10.57-19.12c0.02-22.71,18.06-41.07,40.77-41.07c21.83,0,40.13,17.15,40.76,39.9 c4.58,5.15,8.17,11.9,10.95,20.57c12.21,38.01-36.21,21.34-11.48,5.72c-0.39-5.37-1.18-7.92-2.59-9.26 c-2.82,6.81-7.41,12.69-13.19,17.06v16.66c5.77,0.21,8.71,4.22,10.58,9.68H76.06c-3.33,0-8.17,0.83-10.44-1.89 c-1.56-1.87-1.77-3.95-1.77-6.21v-2.14h0.02v-9.17c-3.25,0.84-6.65,1.29-10.16,1.29C50.53,104.64,47.45,104.27,44.48,103.58 L44.48,103.58z M27.42,47.88c4.46,8.6,11.75,12.31,22.89,9.39c-2.03-7.71-9.68-11.32-17.15-10.76 C31.16,46.65,29.25,47.11,27.42,47.88L27.42,47.88z M79.99,47.88c-4.46,8.6-11.75,12.31-22.89,9.39 c2.03-7.71,9.68-11.32,17.15-10.76C76.25,46.65,78.16,47.11,79.99,47.88L79.99,47.88z"/><path class="st2" d="M38.55,57.66c2,0.54,4.21,0.71,6.64,0.51c0.93-0.84,1.51-2.05,1.51-3.4c0-2.53-2.05-4.59-4.59-4.59 c-2.53,0-4.59,2.05-4.59,4.59C37.53,55.86,37.91,56.87,38.55,57.66L38.55,57.66z"/><path class="st3" d="M42.66,91.85c6.91,3.68,14.75,2.99,21.32-0.57C62.18,79.54,45.37,83.04,42.66,91.85L42.66,91.85z"/><path class="st1" d="M42.12,52.71c1.14,0,2.06,0.92,2.06,2.06c0,1.14-0.92,2.06-2.06,2.06c-1.14,0-2.06-0.92-2.06-2.06 C40.06,53.63,40.98,52.71,42.12,52.71L42.12,52.71z"/><path class="st2" d="M68.85,57.66c-2,0.54-4.21,0.71-6.64,0.51c-0.93-0.84-1.51-2.05-1.51-3.4c0-2.53,2.05-4.59,4.59-4.59 s4.59,2.05,4.59,4.59C69.88,55.86,69.49,56.87,68.85,57.66L68.85,57.66z"/><path class="st1" d="M65.29,52.71c-1.14,0-2.06,0.92-2.06,2.06c0,1.14,0.92,2.06,2.06,2.06c1.14,0,2.06-0.92,2.06-2.06 C67.35,53.63,66.43,52.71,65.29,52.71L65.29,52.71z"/><path class="st4" d="M69.06,25.42c14.08,1.03,21.24-9,24.62-25.42c6.45,17.33,1.85,28.92-8.75,37 C80.51,32.12,75.19,28.09,69.06,25.42L69.06,25.42z M33.61,72.78c2.13-0.43,4.27-0.77,6.43-1.04c-1.42,1.84-2.06,4.13-2.29,6.58 C35.91,76.65,34.61,74.77,33.61,72.78L33.61,72.78z M41.91,71.52c2.27-0.23,4.56-0.38,6.87-0.44c-1.24,2.12-2.55,5.03-3.39,7.23 L41.91,71.52L41.91,71.52z M50.37,71.06c2.37-0.02,4.75,0.04,7.15,0.2l-3.82,7.11L50.37,71.06L50.37,71.06z M59.03,71.36 c2.25,0.18,4.52,0.43,6.8,0.75l-3.53,6.47L59.03,71.36L59.03,71.36z M67.74,72.4c2,0.32,4.02,0.7,6.05,1.13 c-0.76,1.99-2.41,3.33-3.92,5.23C69.75,77.01,68.8,74.01,67.74,72.4L67.74,72.4z M38.35,25.42c-14.08,1.03-21.24-9-24.62-25.42 c-6.45,17.33-1.85,28.92,8.75,37C26.89,32.12,32.22,28.09,38.35,25.42L38.35,25.42z"/></g></svg>